<?xml version="1.0" encoding="UTF-8" standalone="no"?>
<svg
   id="Layer_1"
   data-name="Layer 1"
   viewBox="0 0 623.26003 52.600874"
   version="1.1"
   sodipodi:docname="addimensional.svg"
   width="623.26001"
   height="52.600872"
   inkscape:version="1.1.2 (0a00cf5339, 2022-02-04, custom)"
   xmlns:inkscape="http://www.inkscape.org/namespaces/inkscape"
   xmlns:sodipodi="http://sodipodi.sourceforge.net/DTD/sodipodi-0.dtd"
   xmlns="http://www.w3.org/2000/svg"
   xmlns:svg="http://www.w3.org/2000/svg">
  <sodipodi:namedview
     id="namedview65"
     pagecolor="#ffffff"
     bordercolor="#666666"
     borderopacity="1.0"
     inkscape:pageshadow="2"
     inkscape:pageopacity="0.0"
     inkscape:pagecheckerboard="0"
     showgrid="false"
     fit-margin-top="0"
     fit-margin-left="0"
     fit-margin-right="0"
     fit-margin-bottom="0"
     inkscape:zoom="0.85293602"
     inkscape:cx="314.795"
     inkscape:cy="-234.48417"
     inkscape:window-width="1920"
     inkscape:window-height="1030"
     inkscape:window-x="0"
     inkscape:window-y="27"
     inkscape:window-maximized="1"
     inkscape:current-layer="Layer_1" />
  <defs
     id="defs4">
    <style
       id="style2">.cls-1{fill:#031528;}.cls-2{opacity:0.3;}.cls-3{fill:#00b9bf;}.cls-4{opacity:0.6;}</style>
  </defs>
  <g
     class="cls-2"
     id="g12"
     style="fill:#ffffff;fill-opacity:1"
     transform="translate(-111.95,-659.66913)">
    <polygon
       class="cls-3"
       points="118.77,710.63 139.96,665.07 140.09,665.07 140.39,674.89 141.94,710.63 148.02,710.63 144.58,661.11 137.32,661.11 112.69,710.63 "
       id="polygon8"
       style="fill:#ffffff;fill-opacity:1" />
    <path
       class="cls-3"
       d="m 28.83,681.42 h -7 L 20.25,645.23 20,637.08 -0.62,681.42 h -7.1 L 17.36,631 h 8 v 0.43 z M 22.7,680.5 h 5.15 l -3.37,-48.6 h -6.55 l -24.17,48.6 h 5 L 20,634.94 h 0.87 l 0.31,10.26 z"
       transform="translate(119.67,29.67)"
       id="path10"
       style="fill:#ffffff;fill-opacity:1" />
  </g>
  <g
     class="cls-4"
     id="g18"
     style="fill:#ffffff;fill-opacity:1"
     transform="translate(-111.95,-659.66913)">
    <path
       class="cls-3"
       d="m 46.61,681 10.5,-49.52 h 13.6 c 15.45,0 14.92,12.54 12,24.76 C 79.79,668.46 74.61,681 61.2,681 Z m 6.54,-5 h 8.78 c 8.05,0 12.61,-6 15.25,-20.8 2,-11.29 2,-18.82 -6.87,-18.82 h -8.78 z"
       transform="translate(119.67,29.67)"
       id="path14"
       style="fill:#ffffff;fill-opacity:1" />
    <path
       class="cls-3"
       d="M 61.2,681.42 H 46.05 L 46.16,680.86 56.74,631 h 14 c 5.29,0 9.13,1.48 11.42,4.4 4.16,5.28 2.55,14.47 1,20.93 -2.93,11.67 -8.02,25.09 -21.96,25.09 z m -14,-0.92 h 14 c 13.31,0 18.22,-13 21,-24.41 1.52,-6.27 3.1,-15.18 -0.81,-20.15 -2.11,-2.68 -5.71,-4 -10.7,-4 H 57.48 Z m 14.75,-4 h -9.37 l 0.12,-0.55 8.46,-40 h 9.15 c 3,0 5.06,0.8 6.44,2.45 2.64,3.15 2.26,9 0.88,16.91 -2.63,14.82 -7.34,21.15 -15.7,21.15 z m -8.22,-0.91 h 8.22 c 7.92,0 12.21,-5.92 14.8,-20.42 1.34,-7.62 1.73,-13.28 -0.69,-16.16 -1.19,-1.43 -3.07,-2.12 -5.73,-2.12 H 61.9 Z"
       transform="translate(119.67,29.67)"
       id="path16"
       style="fill:#ffffff;fill-opacity:1" />
  </g>
  <path
     class="cls-3"
     d="M 107.89,51.000872 118.38,1.4808719 h 13.61 c 15.45,0 14.92,12.5400001 12,24.7600001 -2.92,12.22 -8.11,24.76 -21.51,24.76 z m 6.53,-5 h 8.78 c 8.06,0 12.62,-6 15.26,-20.8 2,-11.29 2,-18.8200001 -6.87,-18.8200001 h -8.78 z"
     id="path20"
     style="fill:#ffffff;fill-opacity:1" />
  <path
     class="cls-3"
     d="m 122.48,51.420872 h -15.16 l 0.12,-0.56 10.57,-49.8600001 h 14 c 5.28,0 9.12,1.48 11.42,4.39 4.15,5.2900001 2.54,14.4800001 1,20.9400001 -2.92,11.67 -8.01,25.09 -21.95,25.09 z m -14,-0.92 h 14 c 13.3,0 18.22,-13 21,-24.41 1.53,-6.27 3.1,-15.18 -0.8,-20.1500001 -2.11,-2.68 -5.71,-4 -10.7,-4 h -13.26 z m 14.75,-4 h -9.34 l 0.12,-0.55 8.46,-40.0000001 h 9.15 c 2.95,0 5,0.8 6.43,2.45 2.65,3.1500001 2.27,9.0000001 0.89,16.9100001 -2.68,14.82 -7.38,21.15 -15.74,21.15 z m -8.21,-0.91 h 8.21 c 7.93,0 12.21,-5.92 14.8,-20.42 1.34,-7.62 1.74,-13.29 -0.68,-16.1600001 -1.2,-1.43 -3.07,-2.12 -5.73,-2.12 h -8.41 z"
     id="path22"
     style="fill:#ffffff;fill-opacity:1" />
  <path
     class="cls-3"
     d="M 162.5,51.000872 173,1.4808719 h 5.47 L 167.98,51.000872 Z"
     id="path24"
     style="fill:#ffffff;fill-opacity:1" />
  <path
     class="cls-3"
     d="m 168.35,51.420872 h -6.42 l 0.12,-0.56 10.57,-49.8600001 h 6.42 l -0.12,0.55 z m -5.29,-0.92 h 4.55 l 10.3,-48.6000001 h -4.54 z"
     id="path26"
     style="fill:#ffffff;fill-opacity:1" />
  <path
     class="cls-3"
     d="m 234.8,1.4408719 h 9.64 l -10.5,49.5600001 h -5.48 l 8.65,-40.81 c 0.46,-2.1100001 1.06,-4.1600001 1.39,-6.2700001 h -0.13 c -1.26,2.91 -2.12,4.75 -3,6.6700001 l -18.93,40.41 h -6.53 l -1.65,-41 c -0.07,-1.7100001 -0.13,-3.3600001 -0.13,-6.0700001 h -0.14 c -0.46,2.11 -0.79,4.29 -1.25,6.4000001 l -8.65,40.67 h -5.48 l 10.5,-49.5200001 h 9.7 l 1.52,38.6200001 a 38.51,38.51 0 0 1 -0.53,7.33 h 0.14 c 0.92,-2.51 1.71,-4.95 2.84,-7.39 z"
     id="path28"
     style="fill:#ffffff;fill-opacity:1" />
  <path
     class="cls-3"
     d="m 234.31,51.420872 h -6.41 l 0.11,-0.56 8.66,-40.8 q 0.24,-1.1100001 0.51,-2.1900001 c 0,-0.11 0,-0.23 0.08,-0.34 -0.25,0.57 -0.5,1.1 -0.73,1.62 l -0.72,1.5900001 -19.09,40.68 h -7.27 L 207.78,9.8508719 c 0,-0.71 -0.06,-1.4 -0.08,-2.16 -0.17,0.91 -0.34,1.8 -0.53,2.6900001 l -8.73,41 h -6.42 l 0.12,-0.56 10.58,-49.8200001 h 10.52 l 1.55,39.0000001 a 31.37,31.37 0 0 1 -0.12,4 c 0.51,-1.39 1.05,-2.8 1.69,-4.18 L 234.51,1.0008719 h 10.5 l -0.12,0.55 z m -5.28,-0.92 h 4.54 L 243.88,1.9008719 h -8.79 l -17.9,38.2900001 c -0.83,1.82 -1.47,3.61 -2.15,5.5 -0.22,0.62 -0.44,1.24 -0.67,1.86 l -0.11,0.3 h -1 l 0.08,-0.52 a 39.3,39.3 0 0 0 0.52,-7.25 l -1.5,-38.1800001 h -8.89 L 193.16,50.500872 h 4.56 l 8.57,-40.31 c 0.23,-1.0500001 0.43,-2.1200001 0.62,-3.1900001 0.19,-1.07 0.4,-2.16 0.63,-3.22 l 0.08,-0.36 h 1 v 0.46 c 0,2.64 0.07,4.24 0.13,5.94 v 0.12 l 1.63,40.5600001 h 5.8 L 235.72,8.7708719 c 0.65,-1.42 1.35,-3 2.26,-5.07 l 0.12,-0.28 h 1 l -0.09,0.53 c -0.22,1.4 -0.55,2.79 -0.88,4.14 -0.17,0.71 -0.35,1.43 -0.51,2.1600001 z"
     id="path30"
     style="fill:#ffffff;fill-opacity:1" />
  <path
     class="cls-3"
     d="m 257.06,51.000872 10.5,-49.5200001 h 24.76 l -1.06,4.95 h -19.28 l -3.43,16.3700001 h 18.09 l -1.06,5 h -18.09 l -3.89,18.2 h 19.41 l -1.06,5 z"
     id="path32"
     style="fill:#ffffff;fill-opacity:1" />
  <path
     class="cls-3"
     d="M 282.32,51.420872 H 256.5 l 0.11,-0.56 10.58,-49.8600001 h 25.69 l -1.25,5.87 h -19.27 l -3.25,15.4600001 h 18.1 l -1.25,5.86 h -18.1 l -3.7,17.38 h 19.42 z m -24.69,-0.92 h 24 l 0.86,-4 h -19.46 l 4.09,-19.2 h 18.09 l 0.86,-4 h -18.09 l 3.63,-17.2900001 h 19.28 l 0.86,-4 h -23.82 z"
     id="path34"
     style="fill:#ffffff;fill-opacity:1" />
  <path
     class="cls-3"
     d="m 338.72,1.4408719 h 5.49 L 333.66,51.000872 h -9 l -5.42,-39.62 a 33.39,33.39 0 0 1 -0.26,-7.4600001 h -0.13 c -0.53,2.51 -1,5.08 -1.52,7.5900001 l -8.37,39.49 h -5.48 l 10.5,-49.5200001 h 8.92 l 5.47,40.5200001 a 45,45 0 0 1 0.53,5.41 h 0.14 c 0.33,-1.78 0.66,-3.7 1.05,-5.54 z"
     id="path36"
     style="fill:#ffffff;fill-opacity:1" />
  <path
     class="cls-3"
     d="m 334.03,51.420872 h -9.75 l -0.06,-0.4 -5.41,-39.62 c -0.16,-1.11 -0.27,-2.1800001 -0.33,-3.2600001 -0.22,1.15 -0.44,2.2900001 -0.68,3.4300001 l -8.47,39.85 h -6.41 l 0.11,-0.56 10.58,-49.8600001 h 9.69 l 5.53,40.9400001 c 0.13,0.74 0.23,1.52 0.31,2.37 0.16,-0.85 0.32,-1.7 0.5,-2.54 L 338.3,1.0008719 h 6.42 l -0.12,0.55 z m -8.95,-0.92 h 8.21 l 10.3,-48.6000001 h -4.54 l -8.51,40.0000001 c -0.3,1.41 -0.56,2.86 -0.82,4.26 l -0.3,1.65 h -0.95 v -0.43 a 46.3,46.3 0 0 0 -0.53,-5.36 L 322.52,1.8608719 h -8.15 l -10.3,48.6000001 h 4.54 l 8.31,-39.12 c 0.26,-1.25 0.51,-2.5200001 0.76,-3.7900001 0.25,-1.27 0.5,-2.55 0.76,-3.8 l 0.08,-0.37 h 1 v 0.49 a 33.07,33.07 0 0 0 0.26,7.3600001 z"
     id="path38"
     style="fill:#ffffff;fill-opacity:1" />
  <path
     class="cls-3"
     d="m 386.16,14.450872 c 1.45,-5.1600001 -0.47,-9.0500001 -5.95,-9.0500001 -8,0 -9.9,5.0000001 -10.76,8.8500001 -0.72,3.43 0.33,5.54 3.24,6.73 l 7.26,3 c 8.65,3.5 9.64,6.8 8.25,13.34 -2,9.38 -9,14.86 -18.55,14.86 -4.89,0 -10.37,-1.39 -11.89,-7.86 -0.52,-2.44 0.4,-6.41 0.93,-9 h 5.48 c -1.85,7.33 -1.45,12 6.8,12 5.55,0 10,-2.83 11.29,-8.65 1.59,-7.52 -1.45,-7.59 -6,-9.5 -2.51,-1.06 -6.6,-2.45 -8.91,-3.83 -4.16,-2.38 -4.56,-6.34 -3.5,-11.23 a 16.82,16.82 0 0 1 16.7,-13.53000007 c 9.05,0 13.61,4.67999997 11.1,14.00000007 z"
     id="path40"
     style="fill:#ffffff;fill-opacity:1" />
  <path
     class="cls-3"
     d="m 369.65,52.600872 c -6.9,0 -11.05,-2.76 -12.33,-8.21 -0.5,-2.29 0.22,-5.82 0.75,-8.4 l 0.24,-1.21 h 6.41 l -0.15,0.58 c -1.22,4.85 -1.19,7.64 0.12,9.32 1.08,1.38 3.12,2.06 6.24,2.06 5.75,0 9.7,-3 10.84,-8.29 1.32,-6.24 -0.51,-7 -4.15,-8.36 -0.51,-0.19 -1,-0.4 -1.58,-0.63 -0.73,-0.31 -1.59,-0.64 -2.5,-1 a 47.83,47.83 0 0 1 -6.48,-2.87 c -4.92,-2.81 -4.57,-7.74 -3.71,-11.71 A 17.37,17.37 0 0 1 380.54,8.7192799e-4 c 4.86,0 8.48,1.35999997201 10.45,3.93999997201 1.97,2.58 2.31,6.1100001 1.09,10.6300001 l -0.09,0.34 h -6.44 l 0.17,-0.58 c 0.75,-2.68 0.55,-5.0000001 -0.58,-6.4700001 -1,-1.3 -2.69,-2 -4.93,-2 -7.45,0 -9.43,4.5300001 -10.31,8.4900001 -0.67,3.18 0.24,5.09 3,6.21 l 3.64,1.49 3.62,1.48 c 9,3.65 9.94,7.23 8.53,13.85 -2.05,9.53 -9.15,15.22 -19.04,15.22 z m -10.59,-16.9 -0.09,0.47 c -0.51,2.5 -1.21,5.92 -0.76,8 1.19,5 4.93,7.5 11.44,7.5 9.42,0 16.19,-5.42 18.11,-14.5 1.32,-6.22 0.5,-9.38 -8,-12.81 l -3.62,-1.48 -3.64,-1.49 c -3.13,-1.28 -4.28,-3.65 -3.52,-7.26 1,-4.2900001 3.11,-9.2100001 11.21,-9.2100001 2.54,0 4.49,0.81 5.66,2.36 1.17,1.55 1.52,4.0000001 0.88,6.6900001 h 4.53 c 1,-4.0800001 0.69,-7.2700001 -1,-9.5000001 -1.69,-2.23 -5.15,-3.58999997 -9.72,-3.58999997 A 16.46,16.46 0 0 0 364.29,14.060872 c -1.2,5.52 -0.22,8.73 3.28,10.73 a 46.6,46.6 0 0 0 6.34,2.8 c 0.92,0.36 1.79,0.7 2.52,1 0.54,0.23 1.07,0.43 1.56,0.62 3.73,1.45 6.19,2.4 4.72,9.41 -1.22,5.64 -5.61,9 -11.74,9 -3.42,0 -5.7,-0.78 -7,-2.4 -1.79,-2.3 -1.27,-6.06 -0.43,-9.55 z"
     id="path42"
     style="fill:#ffffff;fill-opacity:1" />
  <path
     class="cls-3"
     d="m 408.35,51.000872 10.5,-49.5200001 h 5.48 l -10.5,49.5200001 z"
     id="path44"
     style="fill:#ffffff;fill-opacity:1" />
  <path
     class="cls-3"
     d="m 414.2,51.420872 h -6.42 l 0.12,-0.56 10.58,-49.8600001 h 6.41 l -0.12,0.55 z m -5.29,-0.92 h 4.55 L 423.72,1.9008719 h -4.5 z"
     id="path46"
     style="fill:#ffffff;fill-opacity:1" />
  <path
     class="cls-3"
     d="m 464.54,0.45087193 c 14.46,0 13.4,13.33000007 10.9,24.69000007 -3,13.73 -7.6,27 -22.06,27 -14.46,0 -13.33,-13.28 -10.56,-27 2.44,-11.36 7,-24.69000007 21.72,-24.69000007 z m -1.32,4.94999997 c -8.45,0 -12.48,8.8500001 -14.72,19.8700001 -3,14.33 -3.17,21.92 5.94,21.92 9.11,0 12.22,-7.59 15.32,-21.92 2.37,-11.02 2.18,-19.8700001 -6.54,-19.8700001 z"
     id="path48"
     style="fill:#ffffff;fill-opacity:1" />
  <path
     class="cls-3"
     d="m 453.38,52.600872 c -4.49,0 -7.83,-1.29 -9.92,-3.84 -4.14,-5.06 -3,-14.39 -1.09,-23.71 2.51,-11.67 7.35,-25.05000007201 22.17,-25.05000007201 4.59,0 8,1.33999997201 10.12,3.99999997201 4.12,5.12 2.82,14.0000001 1.22,21.2600001 -3.07,14.19 -7.93,27.34 -22.5,27.34 z M 464.54,0.90087193 c -14.13,0 -18.69,12.31000007 -21.27,24.34000007 -1.84,9.09 -3,18.17 0.9,22.94 1.93,2.36 4.95,3.51 9.21,3.51 13.92,0 18.61,-12.81 21.61,-26.65 1.43,-6.46 2.87,-15.6100001 -1,-20.4900001 -1.99,-2.42 -5.15,-3.64999997 -9.45,-3.64999997 z M 454.44,47.650872 c -3,0 -5.09,-0.8 -6.43,-2.44 -2.74,-3.37 -2.06,-9.9 0,-20 2.81,-13.81 7.63,-20.2400001 15.17,-20.2400001 a 7.57,7.57 0 0 1 6.23,2.58 c 2.48,3.0700001 2.72,8.7400001 0.76,17.8500001 -3.16,14.75 -6.45,22.25 -15.73,22.25 z m 8.78,-41.7900001 c -7,0 -11.56,6.2000001 -14.27,19.5000001 -2,9.62 -2.73,16.2 -0.23,19.27 1.15,1.42 3,2.11 5.72,2.11 8.67,0 11.71,-7 14.87,-21.56 1.87,-8.7 1.69,-14.29 -0.57,-17.0800001 -1.22,-1.51 -3.02,-2.24 -5.52,-2.24 z"
     id="path50"
     style="fill:#ffffff;fill-opacity:1" />
  <path
     class="cls-3"
     d="m 527.27,1.4408719 h 5.45 L 522.26,51.000872 h -9 l -5.42,-39.62 a 33.39,33.39 0 0 1 -0.26,-7.4600001 h -0.13 c -0.53,2.51 -1,5.08 -1.52,7.5900001 l -8.37,39.49 h -5.48 l 10.5,-49.5200001 h 8.91 l 5.48,40.5200001 a 45,45 0 0 1 0.53,5.41 h 0.13 c 0.33,-1.78 0.66,-3.7 1.06,-5.54 z"
     id="path52"
     style="fill:#ffffff;fill-opacity:1" />
  <path
     class="cls-3"
     d="m 522.63,51.420872 h -9.75 l -0.06,-0.4 -5.41,-39.62 c -0.17,-1.12 -0.27,-2.1800001 -0.33,-3.2600001 -0.22,1.15 -0.44,2.2900001 -0.68,3.4300001 l -8.47,39.85 h -6.41 l 0.11,-0.56 10.58,-49.8600001 h 9.68 l 5.54,40.9400001 c 0.13,0.75 0.23,1.52 0.31,2.36 0.16,-0.84 0.32,-1.69 0.5,-2.53 L 526.9,1.0008719 h 6.42 l -0.12,0.55 z m -8.91,-0.92 h 8.2 L 532.23,1.9008719 h -4.54 l -8.51,40.0000001 c -0.31,1.43 -0.57,2.89 -0.83,4.31 l -0.29,1.6 h -0.95 v -0.43 a 46.15,46.15 0 0 0 -0.52,-5.36 L 511.16,1.8608719 h -8.14 l -10.3,48.6000001 h 4.54 l 8.31,-39.12 c 0.26,-1.25 0.51,-2.5200001 0.76,-3.7900001 0.25,-1.27 0.49,-2.55 0.76,-3.8 l 0.07,-0.37 h 1 v 0.49 a 32.5,32.5 0 0 0 0.26,7.3600001 z"
     id="path54"
     style="fill:#ffffff;fill-opacity:1" />
  <path
     class="cls-3"
     d="m 595.95,51.000872 10.5,-49.5200001 h 5.48 l -9.44,44.5200001 h 20.23 l -1.06,5 z"
     id="path56"
     style="fill:#ffffff;fill-opacity:1" />
  <path
     class="cls-3"
     d="m 622.01,51.420872 h -26.62 l 0.12,-0.56 10.57,-49.8600001 h 6.42 l -0.12,0.55 -9.32,44.0000001 h 20.2 z m -25.49,-0.92 h 24.75 l 0.86,-4 h -20.2 l 0.12,-0.55 9.32,-44.0000001 h -4.54 z"
     id="path58"
     style="fill:#ffffff;fill-opacity:1" />
  <polygon
     class="cls-3"
     points="659.3,710.63 680.5,665.07 680.63,665.07 680.93,674.89 682.48,710.63 688.56,710.63 685.12,661.11 677.86,661.11 653.23,710.63 "
     id="polygon60"
     style="fill:#ffffff;fill-opacity:1"
     transform="translate(-111.95,-659.66913)" />
  <path
     class="cls-3"
     d="m 577.09,51.420872 h -7 l -1.58,-36.19 -0.24,-8.1500001 -20.63,44.3400001 h -7.1 L 565.62,1.0008719 h 8 v 0.43 z m -6.13,-0.92 h 5.15 L 572.72,1.9008719 h -6.55 L 542.02,50.500872 h 5 L 568.21,4.9408719 h 0.87 l 0.31,10.2600001 z"
     id="path62"
     style="fill:#ffffff;fill-opacity:1" />
</svg>
