<?xml version="1.0" encoding="UTF-8" standalone="no"?>
<!-- Created with Inkscape (http://www.inkscape.org/) -->

<svg
   width="134.48578mm"
   height="72.985031mm"
   viewBox="0 0 134.48578 72.985031"
   version="1.1"
   id="svg1627"
   sodipodi:docname="drawing.svg"
   inkscape:version="1.1.2 (0a00cf5339, 2022-02-04, custom)"
   xmlns:inkscape="http://www.inkscape.org/namespaces/inkscape"
   xmlns:sodipodi="http://sodipodi.sourceforge.net/DTD/sodipodi-0.dtd"
   xmlns="http://www.w3.org/2000/svg"
   xmlns:svg="http://www.w3.org/2000/svg">
  <sodipodi:namedview
     id="namedview1629"
     pagecolor="#ffffff"
     bordercolor="#666666"
     borderopacity="1.0"
     inkscape:pageshadow="2"
     inkscape:pageopacity="0.0"
     inkscape:pagecheckerboard="0"
     inkscape:document-units="mm"
     showgrid="false"
     inkscape:zoom="0.64765011"
     inkscape:cx="246.27495"
     inkscape:cy="489.46182"
     inkscape:window-width="1920"
     inkscape:window-height="1030"
     inkscape:window-x="0"
     inkscape:window-y="27"
     inkscape:window-maximized="1"
     inkscape:current-layer="layer1"
     fit-margin-top="0"
     fit-margin-left="0"
     fit-margin-right="0"
     fit-margin-bottom="0" />
  <defs
     id="defs1624">
    <clipPath
       clipPathUnits="userSpaceOnUse"
       id="clipPath102">
      <path
         d="M 0,0 H 1360.63 V 538.583 H 0 Z"
         id="path100" />
    </clipPath>
  </defs>
  <g
     inkscape:label="Layer 1"
     inkscape:groupmode="layer"
     id="layer1"
     transform="translate(-39.884041,-18.780362)">
    <g
       id="g96"
       transform="matrix(1.6444885,0,0,-1.6444885,-604.1858,246.93423)">
      <g
         id="g98"
         clip-path="url(#clipPath102)">
        <g
           id="g104"
           transform="translate(401.1956,94.4073)">
          <path
             d="m 0,0 h -1.093 c -0.12,0 -0.213,0.076 -0.24,0.164 L -2.226,2.598 H -7.317 L -8.21,0.164 C -8.236,0.076 -8.343,0 -8.449,0 h -1.093 l 3.252,8.763 c 0.159,0.416 0.573,0.706 1.052,0.706 h 1.586 c 0.067,0 0.134,-0.038 0.16,-0.088 z m -2.625,3.682 -1.733,4.703 h -0.653 c -0.107,0 -0.2,-0.063 -0.24,-0.164 L -6.917,3.682 Z"
             style="fill:#ffffff;fill-opacity:1;fill-rule:nonzero;stroke:none"
             id="path106" />
        </g>
        <g
           id="g108"
           transform="translate(408.6725,103.7253)">
          <path
             d="m 0,0 c 0.04,0.076 0.133,0.151 0.227,0.151 h 1.159 l -3.465,-9.305 c -0.027,-0.088 -0.133,-0.164 -0.227,-0.164 h -1.053 c -0.093,0 -0.199,0.076 -0.226,0.164 L -7.05,0.151 h 1.159 c 0.094,0 0.2,-0.075 0.227,-0.151 l 2.839,-7.717 z"
             style="fill:#ffffff;fill-opacity:1;fill-rule:nonzero;stroke:none"
             id="path110" />
        </g>
        <g
           id="g112"
           transform="translate(419.8543,94.4073)">
          <path
             d="m 0,0 h -1.093 c -0.12,0 -0.213,0.076 -0.24,0.164 L -2.226,2.598 H -7.317 L -8.21,0.164 C -8.236,0.076 -8.343,0 -8.449,0 h -1.093 l 3.252,8.763 c 0.16,0.416 0.573,0.706 1.052,0.706 h 1.586 c 0.067,0 0.134,-0.038 0.16,-0.088 z m -2.625,3.682 -1.733,4.703 h -0.653 c -0.107,0 -0.2,-0.063 -0.24,-0.164 L -6.917,3.682 Z"
             style="fill:#ffffff;fill-opacity:1;fill-rule:nonzero;stroke:none"
             id="path114" />
        </g>
        <g
           id="g116"
           transform="translate(428.3174,96.1222)">
          <path
             d="M 0,0 C -0.133,0.983 -0.133,1.778 -0.2,2.673 V 7.59 c 0,0.089 0.08,0.164 0.173,0.164 h 1.08 v -9.469 h -1.16 c -0.093,0 -0.213,0.076 -0.253,0.151 L -4.918,6.468 C -4.984,6.582 -5.144,6.67 -5.278,6.67 h -0.226 v -8.221 c 0,-0.088 -0.08,-0.164 -0.173,-0.164 h -1.08 V 7.59 c 0,0.089 0.08,0.164 0.173,0.164 h 1.52 c 0.426,0 0.933,-0.29 1.133,-0.643 l 2.718,-4.854 z"
             style="fill:#ffffff;fill-opacity:1;fill-rule:nonzero;stroke:none"
             id="path118" />
        </g>
        <g
           id="g120"
           transform="translate(432.0551,96.5003)">
          <path
             d="M 0,0 V 5.283 C 0,6.468 1.013,7.427 2.266,7.427 H 6.837 V 6.506 C 6.837,6.418 6.757,6.342 6.65,6.342 H 2.266 c -0.56,0 -1.013,-0.428 -1.013,-0.958 v -5.485 c 0,-0.529 0.453,-0.958 1.013,-0.958 h 2.758 c 0.56,0 1.133,0.429 1.133,0.958 V 2.181 H 3.731 c -0.093,0 -0.173,0.076 -0.173,0.164 V 3.266 H 7.117 C 7.21,3.266 7.29,3.19 7.29,3.102 v -3.228 c 0,-1.337 -1.013,-2.017 -2.266,-2.017 H 2.266 C 1.013,-2.143 0,-1.185 0,0"
             style="fill:#ffffff;fill-opacity:1;fill-rule:nonzero;stroke:none"
             id="path122" />
        </g>
        <g
           id="g124"
           transform="translate(444.2419,102.7923)">
          <path
             d="m 0,0 h 4.318 c 0.093,0 0.173,0.076 0.173,0.164 v 0.92 H 0 c -1.253,0 -2.266,-0.958 -2.266,-2.143 v -5.182 c 0,-1.186 1.013,-2.144 2.266,-2.144 h 4.491 v 0.92 c 0,0.089 -0.08,0.164 -0.173,0.164 H 0 c -0.56,0 -1.013,0.429 -1.013,0.959 v 2.156 h 4.865 c 0.093,0 0.173,0.075 0.173,0.164 v 0.92 h -5.038 v 2.144 C -1.013,-0.429 -0.56,0 0,0"
             style="fill:#ffffff;fill-opacity:1;fill-rule:nonzero;stroke:none"
             id="path126" />
        </g>
        <g
           id="g128"
           transform="translate(457.775,96.1222)">
          <path
             d="M 0,0 C -0.133,0.983 -0.133,1.778 -0.2,2.673 V 7.59 c 0,0.089 0.08,0.164 0.173,0.164 h 1.08 v -9.469 h -1.16 c -0.093,0 -0.213,0.076 -0.253,0.151 L -4.918,6.468 C -4.984,6.582 -5.144,6.67 -5.278,6.67 h -0.226 v -8.221 c 0,-0.088 -0.08,-0.164 -0.173,-0.164 h -1.08 V 7.59 c 0,0.089 0.08,0.164 0.173,0.164 h 1.52 c 0.426,0 0.933,-0.29 1.132,-0.643 l 2.719,-4.854 z"
             style="fill:#ffffff;fill-opacity:1;fill-rule:nonzero;stroke:none"
             id="path130" />
        </g>
        <g
           id="g132"
           transform="translate(461.7792,94.5713)">
          <path
             d="m 0,0 v 9.305 h 1.08 c 0.093,0 0.173,-0.075 0.173,-0.164 V -0.164 H 0.173 C 0.08,-0.164 0,-0.088 0,0"
             style="fill:#ffffff;fill-opacity:1;fill-rule:nonzero;stroke:none"
             id="path134" />
        </g>
        <g
           id="g136"
           transform="translate(468.1553,94.3569)">
          <path
             d="m 0,0 c -1.253,0 -2.266,0.958 -2.266,2.143 v 5.284 c 0,1.185 1.013,2.143 2.266,2.143 h 3.012 c 1.24,0 2.266,-0.958 2.266,-2.143 V 2.143 C 5.278,0.958 4.252,0 3.012,0 Z M -1.013,7.527 V 2.043 C -1.013,1.513 -0.56,1.084 0,1.084 h 3.012 c 0.56,0 1.013,0.429 1.013,0.959 v 5.484 c 0,0.53 -0.453,0.959 -1.013,0.959 H 0 c -0.56,0 -1.013,-0.429 -1.013,-0.959"
             style="fill:#ffffff;fill-opacity:1;fill-rule:nonzero;stroke:none"
             id="path138" />
        </g>
        <g
           id="g140"
           transform="translate(415.5924,112.4165)">
          <path
             d="m 0,0 7.607,2.101 9.18,18.325 2.954,5.896 h -3.437 c -1.525,0 -2.924,-0.845 -3.63,-2.195 z"
             style="fill:#ffffff;fill-opacity:1;fill-rule:nonzero;stroke:none"
             id="path142" />
        </g>
      </g>
    </g>
    <g
       id="g144"
       transform="matrix(1.6444885,0,0,-1.6444885,122.00863,58.61103)">
      <path
         d="M 0,0 7.568,-2.105 -5.926,23.586 -8.888,17.676 Z"
         style="fill:#ffffff;fill-opacity:1;fill-rule:nonzero;stroke:none"
         id="path146" />
    </g>
    <g
       id="g156"
       transform="matrix(1.6444885,0,0,-1.6444885,122.58831,59.763978)">
      <path
         d="M 0,0 -9.571,2.66 -19.142,0 l -7.586,-2.11 5.999,-3.463 c 0.691,-0.399 1.52,-0.485 2.279,-0.237 l 8.878,2.906 8.88,-2.906 c 0.759,-0.248 1.588,-0.162 2.279,0.237 l 5.999,3.463 z"
         style="fill:#ffffff;fill-opacity:1;fill-rule:nonzero;stroke:none"
         id="path158" />
    </g>
  </g>
</svg>
