<?xml version="1.0" encoding="UTF-8" standalone="no"?>
<!-- Created with Inkscape (http://www.inkscape.org/) -->

<svg
   width="172.33607mm"
   height="92.29554mm"
   viewBox="0 0 172.33607 92.29554"
   version="1.1"
   id="svg2346"
   sodipodi:docname="gutl-white.svg"
   inkscape:version="1.1.2 (0a00cf5339, 2022-02-04, custom)"
   xmlns:inkscape="http://www.inkscape.org/namespaces/inkscape"
   xmlns:sodipodi="http://sodipodi.sourceforge.net/DTD/sodipodi-0.dtd"
   xmlns="http://www.w3.org/2000/svg"
   xmlns:svg="http://www.w3.org/2000/svg">
  <sodipodi:namedview
     id="namedview12"
     pagecolor="#ffffff"
     bordercolor="#666666"
     borderopacity="1.0"
     inkscape:pageshadow="2"
     inkscape:pageopacity="0.0"
     inkscape:pagecheckerboard="0"
     inkscape:document-units="mm"
     showgrid="false"
     fit-margin-top="0"
     fit-margin-left="0"
     fit-margin-right="0"
     fit-margin-bottom="0"
     inkscape:zoom="0.64765011"
     inkscape:cx="348.18183"
     inkscape:cy="294.91232"
     inkscape:window-width="1920"
     inkscape:window-height="1030"
     inkscape:window-x="0"
     inkscape:window-y="27"
     inkscape:window-maximized="1"
     inkscape:current-layer="svg2346" />
  <defs
     id="defs2343" />
  <g
     id="layer1"
     transform="translate(-12.917141,-70.43759)"
     style="fill:#ffffff;fill-opacity:1">
    <g
       id="g304"
       transform="matrix(3.8296904,0,0,3.8296904,-1263.1357,-2821.7446)"
       style="fill:#ffffff;fill-opacity:1">
      <polygon
         opacity="0.2"
         fill="#531213"
         points="344.2,773.7 344.2,775 346,773.7 354,779.3 351.1,770.1 358.9,764.4 349.1,764.3 346,755.2 343,764.2 344,764.2 344.1,764.2 346,758.4 348.4,765.3 355.8,765.3 349.9,769.7 352.1,776.6 346,772.4 "
         id="polygon292"
         style="fill:#ffffff;fill-opacity:1" />
      <path
         fill-rule="evenodd"
         clip-rule="evenodd"
         fill="#521212"
         d="m 349.6,772.4 c -0.2,0 -0.3,0 -0.5,0 -0.8,0 -1.5,-0.3 -1.9,-0.8 -0.4,-0.5 -0.6,-1.3 -0.6,-2.4 0,-1.1 0.2,-1.9 0.7,-2.4 0.4,-0.5 1.1,-0.8 1.9,-0.8 0.2,0 0.3,0 0.5,0 0.1,0 0.3,0 0.4,0.1 0.2,0 0.3,0.1 0.5,0.1 0.2,0 0.3,0.1 0.5,0.2 0.1,-0.3 0.3,-0.6 0.4,-1 0.1,-0.4 0.2,-0.8 0.2,-1.2 -0.5,-0.2 -1,-0.4 -1.4,-0.4 -0.4,-0.1 -0.9,-0.1 -1.4,-0.1 -0.8,0 -1.5,0.1 -2.2,0.4 -0.6,0.3 -1.2,0.7 -1.6,1.2 -0.4,0.5 -0.8,1.1 -1,1.7 -0.2,0.7 -0.3,1.4 -0.3,2.2 0,0.8 0.1,1.5 0.3,2.2 0.2,0.7 0.5,1.2 1,1.7 0.4,0.5 1,0.9 1.6,1.1 0.7,0.3 1.4,0.4 2.3,0.4 0.4,0 0.9,0 1.5,-0.1 0.6,-0.1 1.1,-0.2 1.7,-0.4 v -5.4 c -0.2,0 -0.5,-0.1 -0.7,-0.1 -0.2,0 -0.4,0 -0.6,0 -0.2,0 -0.4,0 -0.6,0 -0.2,0 -0.5,0 -0.7,0.1 z"
         id="path294"
         style="fill:#ffffff;fill-opacity:1" />
      <path
         fill-rule="evenodd"
         clip-rule="evenodd"
         fill="#521212"
         d="m 359.9,774.5 c 0.5,-0.2 1,-0.5 1.3,-0.9 0.3,-0.4 0.5,-0.9 0.6,-1.5 0.1,-0.6 0.2,-1.2 0.2,-2 v -6 c -0.3,0 -0.5,-0.1 -0.8,-0.1 -0.2,0 -0.4,0 -0.6,0 -0.2,0 -0.3,0 -0.6,0 -0.2,0 -0.5,0 -0.8,0.1 v 5.7 c 0,0.5 0,0.9 -0.1,1.3 0,0.3 -0.1,0.6 -0.2,0.8 -0.1,0.2 -0.2,0.4 -0.4,0.5 -0.2,0.1 -0.5,0.1 -0.8,0.1 -0.3,0 -0.6,0 -0.8,-0.1 -0.2,-0.1 -0.3,-0.2 -0.4,-0.5 -0.1,-0.2 -0.2,-0.5 -0.2,-0.8 0,-0.3 -0.1,-0.8 -0.1,-1.3 v -5.7 c -0.3,0 -0.5,-0.1 -0.7,-0.1 -0.2,0 -0.4,0 -0.6,0 -0.2,0 -0.4,0 -0.6,0 -0.2,0 -0.5,0 -0.7,0.1 v 6 c 0,0.7 0.1,1.4 0.2,2 0.1,0.6 0.3,1.1 0.7,1.5 0.3,0.4 0.7,0.7 1.3,0.9 0.5,0.2 1.2,0.3 2,0.3 0.9,0 1.6,-0.1 2.1,-0.3 z"
         id="path296"
         style="fill:#ffffff;fill-opacity:1" />
      <path
         fill-rule="evenodd"
         clip-rule="evenodd"
         fill="#521212"
         d="m 365.7,774.6 c 0.5,0.1 1,0.1 1.3,0.1 0.4,0 0.8,0 1.3,-0.1 v -8.3 h 2.5 c 0.1,-0.5 0.1,-0.8 0.1,-1.2 0,-0.2 0,-0.3 0,-0.5 0,-0.2 -0.1,-0.4 -0.1,-0.6 h -7.6 c -0.1,0.4 -0.1,0.8 -0.1,1.1 0,0.4 0,0.7 0.1,1.2 h 2.5 z"
         id="path298"
         style="fill:#ffffff;fill-opacity:1" />
      <path
         fill-rule="evenodd"
         clip-rule="evenodd"
         fill="#521212"
         d="m 372,774.6 h 6.1 c 0,-0.3 0.1,-0.5 0.1,-0.7 0,-0.2 0,-0.4 0,-0.5 0,-0.1 0,-0.3 0,-0.5 0,-0.2 0,-0.4 -0.1,-0.6 h -3.5 V 764 c -0.3,0 -0.5,-0.1 -0.7,-0.1 -0.2,0 -0.4,0 -0.6,0 -0.2,0 -0.4,0 -0.6,0 -0.2,0 -0.5,0 -0.7,0.1 z"
         id="path300"
         style="fill:#ffffff;fill-opacity:1" />
      <polygon
         fill="#531213"
         points="347.9,773.7 347.9,775 346,773.7 338.1,779.3 341,770.1 333.2,764.4 342.9,764.3 346,755.2 349.1,764.2 348.1,764.2 348,764.2 346,758.4 343.7,765.3 336.3,765.3 342.2,769.7 340,776.6 346,772.4 "
         id="polygon302"
         style="fill:#ffffff;fill-opacity:1" />
    </g>
  </g>
</svg>
