<svg xmlns="http://www.w3.org/2000/svg" viewBox="0 0 55.13 61.27"><defs><style>.cls-1{fill:#fff;}</style></defs><g id="Layer_2" data-name="Layer 2"><g id="Layer_1-2" data-name="Layer 1"><path class="cls-1" d="M9.8,44.12l.33-2c.11-.63.21-1.39.38-2.29h0c-.33.79-.71,1.61-1,2.23L8.55,44H7.46l-.11-1.94c0-.59-.08-1.41-.11-2.23h0c-.16.85-.32,1.66-.49,2.29l-.46,2H5l1.39-5.54H8.28l.05,1.66c0,.54.08,1.22.08,1.93h0c.24-.71.57-1.42.79-1.93L10,38.6H11.9l-.77,5.55H9.8Z"/><path class="cls-1" d="M14.59,38.58l-1.06,5.54H12.11l1.06-5.54Z"/><path class="cls-1" d="M14.64,44.12l1-5.54h1.68l.49,1.68a20.4,20.4,0,0,1,.52,2h0a14.75,14.75,0,0,1,.27-2.09l.3-1.63h1.31l-1,5.54H17.77L17.2,42.3c-.22-.79-.38-1.33-.55-2.06h0c-.06.54-.22,1.44-.38,2.36L16,44.12Z"/><path class="cls-1" d="M22.75,38.58l-1.06,5.54H20.28l1.06-5.54Z"/><path class="cls-1" d="M23.11,42.66a2.89,2.89,0,0,0,1.36.35c.38,0,.73-.14.73-.46s-.24-.44-.73-.68a1.71,1.71,0,0,1-.8-.57,1.67,1.67,0,0,1-.37-.9c0-1.17,1-1.88,2.34-1.88a2.84,2.84,0,0,1,1.38.27L26.59,40a2.74,2.74,0,0,0-1.06-.24c-.49,0-.74.19-.74.43s.36.44.79.68A1.69,1.69,0,0,1,26.7,42.3c0,1.36-1.15,1.93-2.37,1.93a3.23,3.23,0,0,1-1.69-.41Z"/><path class="cls-1" d="M29,39.8H27.65l.25-1.22h4.21l-.24,1.22H30.45l-.81,4.33H28.25Z"/><path class="cls-1" d="M35.6,41.89h-2L33.42,43h2.2l-.24,1.19H31.79l1.06-5.55h3.48l-.24,1.2H34l-.19.92h2Z"/><path class="cls-1" d="M37.37,38.68a7.12,7.12,0,0,1,1.6-.16,3.67,3.67,0,0,1,1.53.27,1.36,1.36,0,0,1,.52.49,1.24,1.24,0,0,1,.18.68,1.6,1.6,0,0,1-.34,1,1.57,1.57,0,0,1-.88.56v0a1.28,1.28,0,0,1,.37.43,1.3,1.3,0,0,1,.12.55,8.82,8.82,0,0,0,.24,1.61H39.27a7.22,7.22,0,0,1-.16-1.31c-.06-.63-.27-.79-.71-.79h-.25l-.38,2.1H36.39Zm1,2.32h.43c.55,0,1-.3,1-.79s-.35-.55-.76-.55a1.93,1.93,0,0,0-.41,0Z"/><path class="cls-1" d="M43.84,38.58l-1.06,5.54H41.39l1.06-5.54Z"/><path class="cls-1" d="M49.58,40.81a3.67,3.67,0,0,1-1,2.61,3,3,0,0,1-2.12.81,2.17,2.17,0,0,1-.91-.14,2.35,2.35,0,0,1-.77-.51,2.13,2.13,0,0,1-.5-.78,2.34,2.34,0,0,1-.13-.91,3.61,3.61,0,0,1,1-2.58,2.9,2.9,0,0,1,2.09-.81,2.07,2.07,0,0,1,1.7.61,2.16,2.16,0,0,1,.61,1.7ZM46.29,40a3,3,0,0,0-.62,1.85c0,.73.32,1.19,1,1.19a1.23,1.23,0,0,0,.79-.32,3,3,0,0,0,.62-1.85c0-.65-.24-1.2-1-1.2a.92.92,0,0,0-.46.06A.94.94,0,0,0,46.29,40Z"/><path class="cls-1" d="M13.77,51.82h-2l-.21,1.06h2.2l-.21,1.2H10L11,48.53h3.49l-.22,1.19H12.22l-.19.93h2Z"/><path class="cls-1" d="M15.51,48.58a9.67,9.67,0,0,1,1.61-.1,3.19,3.19,0,0,1,2,.54,2.13,2.13,0,0,1,.64.82,2,2,0,0,1,.18,1,3.09,3.09,0,0,1-1.14,2.53,4.06,4.06,0,0,1-2.72.73A8.34,8.34,0,0,1,14.51,54Zm.6,4.35a1.63,1.63,0,0,0,.44,0,1.71,1.71,0,0,0,.77-.15,1.78,1.78,0,0,0,.64-.45,2.21,2.21,0,0,0,.49-1.52,1.11,1.11,0,0,0-.06-.51,1.15,1.15,0,0,0-.28-.43,1.29,1.29,0,0,0-.45-.27,1.1,1.1,0,0,0-.51,0,1.2,1.2,0,0,0-.38,0Z"/><path class="cls-1" d="M22.7,48.53l-.6,3.15a3.67,3.67,0,0,0-.05.66.63.63,0,0,0,0,.27.69.69,0,0,0,.16.22.57.57,0,0,0,.23.15.84.84,0,0,0,.27,0c.57,0,.93-.38,1.09-1.31l.6-3.15h1.42l-.58,3.1c-.32,1.68-1,2.55-2.69,2.55-1.25,0-2-.62-2-1.82a3.53,3.53,0,0,1,.08-.79l.57-3,1.41,0Z"/><path class="cls-1" d="M30.18,53.94a3.53,3.53,0,0,1-1.47.25,2.32,2.32,0,0,1-2.56-2.4,3.23,3.23,0,0,1,.37-1.61A3.16,3.16,0,0,1,27.65,49a3.84,3.84,0,0,1,2-.51,3,3,0,0,1,1.23.22l-.35,1.14a3.32,3.32,0,0,0-1-.17,1.8,1.8,0,0,0-1.14.36,1.93,1.93,0,0,0-.56.73,1.86,1.86,0,0,0-.17.9,1.24,1.24,0,0,0,.07.54,1.27,1.27,0,0,0,.3.45,1.36,1.36,0,0,0,.47.29,1.42,1.42,0,0,0,.54.05,2.64,2.64,0,0,0,1-.16Z"/><path class="cls-1" d="M32.63,52.77l-.54,1.31H30.56l2.64-5.55h1.85l.6,5.55H34.18l0-1.31Zm1.42-1.06-.06-1c0-.3,0-.79-.05-1.12h0c-.14.36-.3.82-.44,1.12l-.43,1h1Z"/><path class="cls-1" d="M40.33,53.94a3.53,3.53,0,0,1-1.47.25,2.32,2.32,0,0,1-2.56-2.4,3.23,3.23,0,0,1,.37-1.61A3.06,3.06,0,0,1,37.8,49a3.58,3.58,0,0,1,2-.52,3,3,0,0,1,1.23.22l-.35,1.14a3,3,0,0,0-1-.16,1.74,1.74,0,0,0-1.14.35,1.93,1.93,0,0,0-.56.73,1.86,1.86,0,0,0-.17.9,1.24,1.24,0,0,0,.07.54,1.27,1.27,0,0,0,.3.45,1.36,1.36,0,0,0,.47.29,1.42,1.42,0,0,0,.54.05,2.64,2.64,0,0,0,1-.16Z"/><path class="cls-1" d="M43.41,48.53l-1.06,5.55H41L42,48.53Z"/><path class="cls-1" d="M43.73,51.82a3.63,3.63,0,0,1,1-2.58,3,3,0,0,1,2.1-.82,2.13,2.13,0,0,1,1.69.64,2.22,2.22,0,0,1,.5.78,2.38,2.38,0,0,1,.12.92,3.71,3.71,0,0,1-1,2.61,3,3,0,0,1-2.12.82,2.3,2.3,0,0,1-.91-.16,2.38,2.38,0,0,1-.77-.52,2.22,2.22,0,0,1-.5-.78A2.35,2.35,0,0,1,43.73,51.82Zm3.32.84a3,3,0,0,0,.63-1.85c0-.65-.25-1.19-1-1.19a1.13,1.13,0,0,0-.45.09,1.18,1.18,0,0,0-.37.26,3,3,0,0,0-.62,1.85c0,.74.32,1.2,1,1.2a1.38,1.38,0,0,0,.76-.36Zm1.47-5.54-1.06,1.06H46.29l.76-1.06Z"/><path class="cls-1" d="M49.47,54.08l1.07-5.55H52.2l.51,1.69c.22.73.38,1.36.52,2h0a12.31,12.31,0,0,1,.27-2.1l.3-1.63h1.3l-1.06,5.55H52.6L52,52.26a21.2,21.2,0,0,1-.54-2.07h0c-.06.54-.22,1.44-.38,2.37l-.3,1.52Z"/><path class="cls-1" d="M4.47,48.23l-.85,4.41a13.48,13.48,0,0,0-.19,1.44H2.56l.08-.71h0A1.67,1.67,0,0,1,2,54a1.66,1.66,0,0,1-.79.21C.52,54.16,0,53.59,0,52.69A2.61,2.61,0,0,1,2.51,50a1.48,1.48,0,0,1,.62.11l.35-1.88,1,0ZM3,50.87a1,1,0,0,0-.55-.16c-.82,0-1.44.92-1.44,1.82,0,.49.19.87.65.87s1-.46,1.12-1.31Z"/><path class="cls-1" d="M7.65,53.83a3,3,0,0,1-1.42.33,1.67,1.67,0,0,1-.66-.08A1.58,1.58,0,0,1,5,53.72a1.43,1.43,0,0,1-.35-.56,1.49,1.49,0,0,1-.09-.66A2.46,2.46,0,0,1,6.86,50a1.12,1.12,0,0,1,.48,0,1,1,0,0,1,.42.23,1.1,1.1,0,0,1,.29.38,1.21,1.21,0,0,1,.12.46c0,1-1.09,1.36-2.64,1.34a1,1,0,0,0,.11.57.91.91,0,0,0,.35.32.81.81,0,0,0,.46.08,2.18,2.18,0,0,0,1.12-.27Zm-.92-3.15a1.22,1.22,0,0,0-1.12,1c1,0,1.63-.11,1.63-.6,0-.27-.19-.43-.52-.43Z"/><path class="cls-1" d="M29,28.38a9.08,9.08,0,0,0,3,1.11L45.64,16a15.71,15.71,0,0,1-4.44-1.39c-3.78-1.85-6.64-4.9-11.13-1.2a1.7,1.7,0,0,1,.19-.19L16.6,26.88a1.18,1.18,0,0,0,.37.26,1.22,1.22,0,0,0,.45.1,8.73,8.73,0,0,1,8.3,2.63s4.24,4.06,6.39,4.06l13.5-13.49-1.93-.25L32.14,31.75s-1.47.46-5.55-3.07c-2.12-1.85-5.66-2.83-7-2.56C23.87,24.41,26.4,27,29,28.38Z"/><path class="cls-1" d="M29,2.19C26.32-.31,22,0,22,0L9.53,11.38a9.81,9.81,0,0,1,5.66,1.2C18.1,14.37,20.36,18.42,18,23.7c1.28-5.71-1.44-8.29-3.64-9.35a6.35,6.35,0,0,0-2.45-.6L9.49,15.92a6.07,6.07,0,0,1,7.81,4.79,7.78,7.78,0,0,1-.89,4.78,1.19,1.19,0,0,0-.19.63,1.16,1.16,0,0,0,.32.79L30.2,13.26C33.12,10.24,31.79,4.86,29,2.19Z"/><path class="cls-1" d="M7.65,58.21a4.27,4.27,0,0,1,.87-.08,1.67,1.67,0,0,1,.82.16.77.77,0,0,1,.28.26.69.69,0,0,1,.1.37.91.91,0,0,1-.18.53.93.93,0,0,1-.47.31v0a.7.7,0,0,1,.2.22.6.6,0,0,1,.07.3,7.21,7.21,0,0,0,.14.87h-.8a5.71,5.71,0,0,1-.08-.71c0-.35-.13-.44-.38-.44H8.09l-.22,1.15H7.11Zm.52,1.25h.24c.3,0,.52-.16.52-.43s-.19-.3-.41-.3-.19,0-.22,0Z"/><path class="cls-1" d="M11.89,60H10.83l-.11.57h1.2l-.13.66h-2l.57-3h1.88l-.14.65H11l-.11.52H12Z"/><path class="cls-1" d="M12.85,58.21a3.37,3.37,0,0,1,.84-.08,1.46,1.46,0,0,1,.82.19.79.79,0,0,1,.38.68,1,1,0,0,1-.1.49,1,1,0,0,1-.34.38,1.55,1.55,0,0,1-1,.27.65.65,0,0,1-.24,0l-.19,1H12.3Zm.49,1.31.22,0a.41.41,0,0,0,.19,0,.46.46,0,0,0,.17-.09.48.48,0,0,0,.13-.16.59.59,0,0,0,0-.19c0-.24-.19-.32-.41-.32a.56.56,0,0,0-.22,0Z"/><path class="cls-1" d="M16.22,58.16l-.33,1.71a1.45,1.45,0,0,0,0,.36.26.26,0,0,0,0,.15.32.32,0,0,0,.08.12.38.38,0,0,0,.13.09l.15,0c.3,0,.49-.19.6-.71l.32-1.72h.77l-.33,1.69c-.16.93-.54,1.39-1.44,1.39a.94.94,0,0,1-.41,0A.88.88,0,0,1,15.4,61a.89.89,0,0,1-.23-.34.91.91,0,0,1-.06-.4,2.2,2.2,0,0,1,.05-.44l.33-1.63.73-.05Zm1.36-.76L17,58h-.62l.4-.57Z"/><path class="cls-1" d="M18.48,58.21a4,4,0,0,1,.84-.08,1.7,1.7,0,0,1,.77.14.73.73,0,0,1,.29.23.69.69,0,0,1,.11.36.76.76,0,0,1-.17.46.73.73,0,0,1-.43.25.69.69,0,0,1,.47.65.94.94,0,0,1-.13.43.84.84,0,0,1-.31.31,2.24,2.24,0,0,1-1.19.24,4.46,4.46,0,0,1-.82-.05Zm.3,2.37H19c.3,0,.57-.11.57-.38s-.22-.33-.52-.33h-.16ZM19,59.3h.19c.33,0,.52-.11.52-.33s-.16-.27-.35-.27-.19,0-.22,0Z"/><path class="cls-1" d="M21.26,58.16H22l-.44,2.34h1.15l-.14.65H20.68Z"/><path class="cls-1" d="M24.28,58.16l-.57,3h-.77l.57-3Z"/><path class="cls-1" d="M26.64,61.07a1.74,1.74,0,0,1-.78.13,1.35,1.35,0,0,1-.53-.05,1.33,1.33,0,0,1-.46-.27,1.23,1.23,0,0,1-.3-.44,1.13,1.13,0,0,1-.1-.51,1.66,1.66,0,0,1,.81-1.53,2.38,2.38,0,0,1,.86-.26,2.24,2.24,0,0,1,.89.1l-.2.63a1.48,1.48,0,0,0-.51-.09,1,1,0,0,0-.63.19,1.12,1.12,0,0,0-.3.41,1.15,1.15,0,0,0-.08.49.78.78,0,0,0,0,.3.7.7,0,0,0,.17.25.82.82,0,0,0,.25.16.77.77,0,0,0,.3,0,2,2,0,0,0,.55-.08Z"/><path class="cls-1" d="M28,60.44l-.3.71h-.82l1.44-3h1l.33,3h-.79l0-.71Zm.76-.57,0-.54c0-.17,0-.41,0-.6-.09.19-.17.43-.25.62l-.22.55.52,0Z"/><path class="cls-1" d="M33.45,58,33,60.25a5.9,5.9,0,0,0-.11.93h-.7l0-.33a.75.75,0,0,1-.29.27.77.77,0,0,1-.39.11c-.35,0-.68-.27-.68-.84a1.35,1.35,0,0,1,.09-.56,1.75,1.75,0,0,1,.29-.47,1.44,1.44,0,0,1,1-.44,1.28,1.28,0,0,1,.27,0l.19-1Zm-1.06,1.55a.58.58,0,0,0-.22-.08c-.33,0-.55.41-.55.76s.14.36.25.36.33-.14.41-.52Z"/><path class="cls-1" d="M35.32,61a2.14,2.14,0,0,1-.87.17.86.86,0,0,1-.39,0,.83.83,0,0,1-.34-.2.87.87,0,0,1-.22-.33.78.78,0,0,1,0-.4,1.3,1.3,0,0,1,.08-.51,1.26,1.26,0,0,1,.29-.43,1.37,1.37,0,0,1,.42-.29,1.32,1.32,0,0,1,.51-.1c.47,0,.82.25.82.71s-.49.79-1.42.76a.11.11,0,0,0,0,.08.17.17,0,0,0,.06.06.55.55,0,0,0,.38.11,1.65,1.65,0,0,0,.62-.14Zm-.65-1.55a.48.48,0,0,0-.28.1.46.46,0,0,0-.15.26c.46,0,.62-.06.62-.22s0-.14-.19-.14Z"/><path class="cls-1" d="M39,61.07a1.78,1.78,0,0,1-.79.13,1.3,1.3,0,0,1-.52-.05,1.33,1.33,0,0,1-.46-.27,1.25,1.25,0,0,1-.31-.44,1.29,1.29,0,0,1-.1-.51,1.69,1.69,0,0,1,.82-1.53,2.33,2.33,0,0,1,.85-.26,2.22,2.22,0,0,1,.89.1l-.19.63a1.54,1.54,0,0,0-.52-.09A1,1,0,0,0,38,59a1.12,1.12,0,0,0-.3.41,1,1,0,0,0-.08.49.63.63,0,0,0,0,.3.67.67,0,0,0,.16.25.87.87,0,0,0,.26.16.77.77,0,0,0,.3,0,2,2,0,0,0,.54-.08Z"/><path class="cls-1" d="M40.66,58.16l-.33,1.71a2.19,2.19,0,0,0,0,.36.4.4,0,0,0,0,.15.23.23,0,0,0,.08.12.3.3,0,0,0,.13.09l.15,0c.29,0,.49-.19.59-.71l.33-1.71h.76l-.32,1.68c-.17.93-.55,1.39-1.45,1.39a1,1,0,0,1-.41,0,.84.84,0,0,1-.35-.21.89.89,0,0,1-.23-.34.79.79,0,0,1-.07-.4,3.32,3.32,0,0,1,.06-.44l.3-1.63.76-.05Z"/><path class="cls-1" d="M42.92,58.21a3.92,3.92,0,0,1,.84-.08,1.66,1.66,0,0,1,.76.14.76.76,0,0,1,.3.23.69.69,0,0,1,.11.36.71.71,0,0,1-.17.45.72.72,0,0,1-.4.26.66.66,0,0,1,.34.25.65.65,0,0,1,.12.4.82.82,0,0,1-.12.43.92.92,0,0,1-.31.31,2.27,2.27,0,0,1-1.2.24,4.52,4.52,0,0,1-.82-.05Zm.3,2.37h.21c.3,0,.58-.11.58-.38s-.25-.33-.52-.33h-.14Zm.24-1.28h.19c.33,0,.52-.11.52-.33s-.16-.27-.38-.27-.19,0-.22,0Z"/><path class="cls-1" d="M46,60.44l-.3.71h-.81l1.44-3h1l.32,3h-.78l0-.71Zm.76-.57,0-.54c0-.17,0-.41,0-.6-.08.19-.16.43-.25.62l-.21.55.51,0Z"/></g></g></svg>