<?xml version="1.0" encoding="UTF-8" standalone="no"?>
<svg
   viewBox="0 0 1000 828.66"
   version="1.1"
   id="svg56"
   sodipodi:docname="SYSADMINSDECUBARecurso 15.svg"
   inkscape:version="1.1.2 (0a00cf5339, 2022-02-04, custom)"
   xmlns:inkscape="http://www.inkscape.org/namespaces/inkscape"
   xmlns:sodipodi="http://sodipodi.sourceforge.net/DTD/sodipodi-0.dtd"
   xmlns="http://www.w3.org/2000/svg"
   xmlns:svg="http://www.w3.org/2000/svg">
  <sodipodi:namedview
     id="namedview58"
     pagecolor="#ffffff"
     bordercolor="#666666"
     borderopacity="1.0"
     inkscape:pageshadow="2"
     inkscape:pageopacity="0.0"
     inkscape:pagecheckerboard="0"
     showgrid="false"
     inkscape:zoom="0.87732004"
     inkscape:cx="500.38752"
     inkscape:cy="414.8999"
     inkscape:window-width="1920"
     inkscape:window-height="1030"
     inkscape:window-x="0"
     inkscape:window-y="27"
     inkscape:window-maximized="1"
     inkscape:current-layer="svg56" />
  <defs
     id="defs4">
    <style
       id="style2">.cls-1{fill:#3065af;}.cls-2{fill:#e40e20;}.cls-3{fill:#d31a2b;}.cls-4{fill:#3f3f3e;}</style>
  </defs>
  <g
     id="Capa_2"
     data-name="Capa 2"
     style="fill:#ffffff;fill-opacity:1">
    <g
       id="SYSADMIN_DE_CUBA"
       style="fill:#ffffff;fill-opacity:1">
      <path
         class="cls-1"
         d="M695.34,0H348L463.13,115.2H695.34a32,32,0,0,0,32-32V32A32,32,0,0,0,695.34,0ZM669.75,86.38A28.78,28.78,0,1,1,698.53,57.6,28.76,28.76,0,0,1,669.75,86.38Z"
         id="path6"
         style="fill:#ffffff;fill-opacity:1" />
      <path
         class="cls-1"
         d="M727.34,204.79V256a32,32,0,0,1-32,32H520.76l17-17a57.46,57.46,0,0,0,0-81.25l-17-17H695.34A32,32,0,0,1,727.34,204.79Z"
         id="path8"
         style="fill:#ffffff;fill-opacity:1" />
      <path
         class="cls-1"
         d="M695.34,345.59H463.16L348,460.78H695.34a32,32,0,0,0,32-32v-51.2A32,32,0,0,0,695.34,345.59ZM669.75,432a28.78,28.78,0,1,1,28.78-28.78A28.76,28.76,0,0,1,669.75,432Z"
         id="path10"
         style="fill:#ffffff;fill-opacity:1" />
      <path
         class="cls-2"
         d="M402.05,345.59,288.48,459.15a32,32,0,0,1-21.92-30.37v-51.2a32,32,0,0,1,32-32Z"
         id="path12"
         style="fill:#ffffff;fill-opacity:1" />
      <path
         class="cls-2"
         d="M482.62,195.76l-23-23H298.56a32,32,0,0,0-32,32V256a32,32,0,0,0,32,32H459.65l23-23A49,49,0,0,0,482.62,195.76ZM324.16,259.21A28.82,28.82,0,1,1,353,230.39,28.79,28.79,0,0,1,324.16,259.21Z"
         id="path14"
         style="fill:#ffffff;fill-opacity:1" />
      <path
         class="cls-2"
         d="M402.05,115.2H298.56a32,32,0,0,1-32-32V32A32,32,0,0,1,288.48,1.63Z"
         id="path16"
         style="fill:#ffffff;fill-opacity:1" />
      <path
         class="cls-3"
         d="M266.56,83.2V32A32,32,0,0,1,288.48,1.63L402.05,115.2H298.56A32,32,0,0,1,266.56,83.2Z"
         id="path18"
         style="fill:#ffffff;fill-opacity:1" />
      <path
         class="cls-3"
         d="M298.56,345.59H402.05L288.48,459.15a32,32,0,0,1-21.92-30.37v-51.2A32,32,0,0,1,298.56,345.59Z"
         id="path20"
         style="fill:#ffffff;fill-opacity:1" />
      <path
         class="cls-3"
         d="M482.62,195.76l-23-23H298.56a32,32,0,0,0-32,32V256a32,32,0,0,0,32,32H459.65l23-23A49,49,0,0,0,482.62,195.76ZM324.16,259.21A28.82,28.82,0,1,1,353,230.39,28.79,28.79,0,0,1,324.16,259.21Z"
         id="path22"
         style="fill:#ffffff;fill-opacity:1" />
      <path
         class="cls-4"
         d="M0,656.7H21.83c0,14.65,12.06,22.74,27.43,22.74,14,0,25.87-7.32,25.87-19.37,0-13-14-16.33-29.84-20.05-20.06-4.87-43.07-10.41-43.07-37.46,0-23.65,17.92-37.62,45.86-37.62,28.44,0,45.27,15.49,45.27,40.22H72.08c0-13.08-10.8-20.16-24.49-20.16-13.06,0-23.86,6-23.86,16.65,0,12.1,13.47,15.39,29,19.11,20.38,5.06,44.38,10.89,44.38,39.07C97.15,686.05,76,700,49.44,700,20,700,0,683.48,0,656.7Z"
         id="path24"
         style="fill:#ffffff;fill-opacity:1" />
      <path
         class="cls-4"
         d="M163.32,645.45V698H141.19V645.36l-47-78.47h23.25l35,58.65,35.12-58.65h23.25Z"
         id="path26"
         style="fill:#ffffff;fill-opacity:1" />
      <path
         class="cls-4"
         d="M208.82,656.7h21.83c0,14.65,12.06,22.74,27.43,22.74,13.95,0,25.87-7.32,25.87-19.37,0-13-14-16.33-29.84-20.05C234.05,635.15,211,629.61,211,602.56c0-23.65,17.93-37.62,45.86-37.62,28.44,0,45.27,15.49,45.27,40.22H280.9c0-13.08-10.8-20.16-24.48-20.16-13.07,0-23.87,6-23.87,16.65,0,12.1,13.47,15.39,29,19.11C282,625.82,306,631.65,306,659.83c0,26.22-21.16,40.16-47.7,40.16C228.86,700,208.82,683.48,208.82,656.7Z"
         id="path28"
         style="fill:#ffffff;fill-opacity:1" />
      <path
         class="cls-4"
         d="M398.18,669.45H339.73L328.58,698H305.73L358.4,566.89h20.22L432.85,698H409.52Zm-51-19.26h43.53l-21.92-55.28Z"
         id="path30"
         style="fill:#ffffff;fill-opacity:1" />
      <path
         class="cls-4"
         d="M555.12,632.38c0,38-28,65.6-66.48,65.6H442.43V566.89h46.21C527.22,566.89,555.12,594.42,555.12,632.38Zm-22,0c0-26.44-18.61-45.42-45.11-45.42H463.94v91H488C514.52,677.92,533.13,658.77,533.13,632.38Z"
         id="path32"
         style="fill:#ffffff;fill-opacity:1" />
      <path
         class="cls-4"
         d="M700.81,698l-15.25-95-42.62,93h-5.49L594.81,603l-15.36,95H557.51l21.42-131.09H600.1l40,89.14,40.14-89.14h21.43L722.74,698Z"
         id="path34"
         style="fill:#ffffff;fill-opacity:1" />
      <path
         class="cls-4"
         d="M738.73,566.89h21.51V698H738.73Z"
         id="path36"
         style="fill:#ffffff;fill-opacity:1" />
      <path
         class="cls-4"
         d="M888.85,566.89V698H870.8l-68.1-93.6V698H781.61V566.89h19.45L867.77,659V566.89Z"
         id="path38"
         style="fill:#ffffff;fill-opacity:1" />
      <path
         class="cls-4"
         d="M902.85,656.7h21.83c0,14.65,12.06,22.74,27.43,22.74,13.95,0,25.87-7.32,25.87-19.37,0-13-14-16.33-29.84-20.05-20.06-4.87-43.07-10.41-43.07-37.46,0-23.65,17.92-37.62,45.86-37.62,28.44,0,45.27,15.49,45.27,40.22H974.93c0-13.08-10.8-20.16-24.48-20.16-13.07,0-23.87,6-23.87,16.65,0,12.1,13.47,15.39,29,19.11C976,625.82,1000,631.65,1000,659.83c0,26.22-21.17,40.16-47.71,40.16C922.89,700,902.85,683.48,902.85,656.7Z"
         id="path40"
         style="fill:#ffffff;fill-opacity:1" />
      <path
         class="cls-4"
         d="M337.24,786.92c0,23.15-17.08,40-40.48,40h-30.2V747.1h30.2C320.25,747.1,337.24,763.87,337.24,786.92Zm-17.69,0c0-14-9.51-23.79-23.22-23.79h-12.5V810.9h12.5C310,810.9,319.55,800.87,319.55,786.92Z"
         id="path42"
         style="fill:#ffffff;fill-opacity:1" />
      <path
         class="cls-4"
         d="M395.87,810.85v16.07H346.69V747.1h47.92v16H364v15.76h27.69v15.64H364v16.39Z"
         id="path44"
         style="fill:#ffffff;fill-opacity:1" />
      <path
         class="cls-4"
         d="M468.59,828.65c-23.43,0-41.21-18-41.21-41.54,0-23.76,17.78-41.73,41.21-41.73,19.43,0,34.93,12.86,38.63,31.8H489.91c-3.27-9.43-11.25-15.32-21.32-15.32-13.5,0-23.71,10.89-23.71,25.25s10.21,25,23.71,25c10.5,0,18.6-6.34,21.47-16.45h17.41c-3.61,19.74-19.11,32.93-38.88,32.93Z"
         id="path46"
         style="fill:#ffffff;fill-opacity:1" />
      <path
         class="cls-4"
         d="M515.1,796.88V747.1h17.29v49c0,10,6.5,16.29,15.7,16.29s15.67-6.31,15.67-16.29v-49h17.3v49.78c0,18.71-14.11,31.78-33,31.78S515.1,815.59,515.1,796.88Z"
         id="path48"
         style="fill:#ffffff;fill-opacity:1" />
      <path
         class="cls-4"
         d="M653.68,803.89c0,12.8-11.26,23-25.13,23H594.62V747.1h33c13.77,0,24,8.78,24,20.53a21,21,0,0,1-9,17.2C649.68,788.52,653.68,795.45,653.68,803.89Zm-26.76,7.18c5.69,0,9.43-3.75,9.43-9s-3.74-8.91-9.43-8.91H611.59v17.9h15.33ZM626,761.81H611.6v17H626c5.45,0,8.9-3.52,8.9-8.51S631.4,761.81,626,761.81Z"
         id="path50"
         style="fill:#ffffff;fill-opacity:1" />
      <path
         class="cls-4"
         d="M709.12,811.79H677.36l-5.48,15.13H653.55l31.29-79.82h16.31l32.29,79.82H714.7Zm-26.38-15h21L693.16,768.2Z"
         id="path52"
         style="fill:#ffffff;fill-opacity:1" />
    </g>
  </g>
</svg>
